<svg xmlns="http://www.w3.org/2000/svg" xmlns:xlink="http://www.w3.org/1999/xlink" width="500" zoomAndPan="magnify" viewBox="0 0 375 374.999991" height="500" preserveAspectRatio="xMidYMid meet" version="1.0"><defs><clipPath id="8ac0ee4f25"><path d="M 8 55.464844 L 375 55.464844 L 375 319.464844 L 8 319.464844 Z M 8 55.464844 " clip-rule="nonzero"/></clipPath><clipPath id="380355537f"><path d="M 8 240 L 264 240 L 264 319.464844 L 8 319.464844 Z M 8 240 " clip-rule="nonzero"/></clipPath></defs><g clip-path="url(#8ac0ee4f25)"><path fill="#ffffff" d="M 262.707031 56.222656 C 245.75 73.144531 230.21875 88.945312 214.238281 104.289062 C 211.875 106.554688 207.402344 107.546875 203.886719 107.570312 C 165.671875 107.800781 127.449219 107.515625 89.238281 107.800781 C 67.269531 107.964844 54.039062 128.945312 64.023438 147.179688 C 68.601562 155.53125 75.738281 160.992188 85.335938 161.082031 C 120.886719 161.421875 156.441406 161.390625 191.980469 161.097656 C 194.972656 161.074219 198.511719 158.652344 200.820312 156.363281 C 232.582031 124.902344 264.050781 93.140625 295.976562 61.84375 C 299.296875 58.59375 305.007812 56.289062 309.679688 56.148438 C 330.675781 55.546875 351.703125 55.886719 372.734375 55.886719 C 329.3125 99 286.058594 141.933594 242.867188 184.816406 C 288.261719 229.785156 331.671875 272.800781 375.089844 315.8125 C 374.511719 316.898438 373.929688 317.972656 373.359375 319.058594 C 367.382812 319.058594 361.410156 319.058594 355.433594 319.058594 C 340.324219 319.058594 325.203125 318.765625 310.113281 319.203125 C 303.929688 319.382812 299.664062 317.363281 295.382812 313.042969 C 264.328125 281.707031 233.179688 250.472656 201.675781 219.585938 C 198.347656 216.324219 192.605469 213.945312 187.949219 213.878906 C 154.484375 213.390625 120.992188 214.191406 87.523438 213.433594 C 56.375 212.730469 32.164062 198.78125 17.71875 170.769531 C 3.492188 143.179688 5.492188 115.695312 22.695312 89.972656 C 36.128906 69.902344 55.664062 57.09375 79.667969 56.621094 C 140.046875 55.421875 200.46875 56.222656 262.707031 56.222656 Z M 262.707031 56.222656 " fill-opacity="1" fill-rule="nonzero"/></g><g clip-path="url(#380355537f)"><path fill="#ffffff" d="M 9.242188 240.828125 C 23.925781 247.710938 38.019531 255.941406 53.191406 260.9375 C 65.890625 265.125 79.816406 267.046875 93.25 267.316406 C 129.964844 268.042969 166.703125 267.179688 203.421875 267.480469 C 207.835938 267.511719 213.203125 269.800781 216.449219 272.832031 C 231.921875 287.289062 246.808594 302.363281 263.308594 318.59375 C 258.660156 318.84375 256.394531 319.066406 254.125 319.066406 C 198.4375 319.074219 142.753906 319.292969 87.066406 318.984375 C 45.132812 318.738281 11.039062 286.382812 8.984375 245.601562 C 8.894531 243.664062 9.1875 241.707031 9.242188 240.828125 Z M 9.242188 240.828125 " fill-opacity="1" fill-rule="nonzero"/></g></svg>