<svg xmlns="http://www.w3.org/2000/svg" xmlns:xlink="http://www.w3.org/1999/xlink" width="500" zoomAndPan="magnify" viewBox="0 0 375 374.999991" height="500" preserveAspectRatio="xMidYMid meet" version="1.0"><defs><clipPath id="7bec26bed0"><path d="M 5 54.296875 L 375 54.296875 L 375 320.546875 L 5 320.546875 Z M 5 54.296875 " clip-rule="nonzero"/></clipPath><clipPath id="64e5ed240e"><path d="M 5 241 L 263 241 L 263 320.546875 L 5 320.546875 Z M 5 241 " clip-rule="nonzero"/></clipPath></defs><g clip-path="url(#7bec26bed0)"><path fill="#1a1a1a" d="M 261.507812 55.0625 C 244.414062 72.128906 228.757812 88.0625 212.652344 103.535156 C 210.265625 105.820312 205.761719 106.824219 202.21875 106.847656 C 163.695312 107.078125 125.167969 106.789062 86.644531 107.078125 C 64.503906 107.242188 51.167969 128.402344 61.230469 146.792969 C 65.84375 155.21875 73.039062 160.722656 82.714844 160.8125 C 118.546875 161.160156 154.390625 161.125 190.214844 160.828125 C 193.230469 160.804688 196.800781 158.363281 199.125 156.054688 C 231.144531 124.328125 262.867188 92.296875 295.046875 60.730469 C 298.394531 57.453125 304.148438 55.125 308.859375 54.988281 C 330.023438 54.378906 351.222656 54.722656 372.417969 54.722656 C 328.652344 98.203125 285.050781 141.503906 241.511719 184.75 C 287.269531 230.105469 331.027344 273.484375 374.796875 316.867188 C 374.210938 317.957031 373.628906 319.042969 373.050781 320.136719 C 367.027344 320.136719 361.007812 320.136719 354.980469 320.136719 C 339.753906 320.136719 324.507812 319.839844 309.296875 320.285156 C 303.0625 320.464844 298.765625 318.425781 294.449219 314.070312 C 263.144531 282.464844 231.742188 250.96875 199.988281 219.816406 C 196.636719 216.527344 190.847656 214.128906 186.152344 214.0625 C 152.414062 213.570312 118.65625 214.375 84.917969 213.613281 C 53.519531 212.90625 29.113281 198.835938 14.550781 170.585938 C 0.210938 142.757812 2.226562 115.042969 19.566406 89.097656 C 33.109375 68.859375 52.800781 55.941406 77 55.464844 C 137.863281 54.253906 198.773438 55.0625 261.507812 55.0625 Z M 261.507812 55.0625 " fill-opacity="1" fill-rule="nonzero"/></g><g clip-path="url(#64e5ed240e)"><path fill="#1a1a1a" d="M 6.007812 241.238281 C 20.808594 248.183594 35.015625 256.484375 50.3125 261.519531 C 63.113281 265.742188 77.148438 267.683594 90.691406 267.953125 C 127.699219 268.6875 164.734375 267.816406 201.75 268.117188 C 206.199219 268.152344 211.609375 270.460938 214.878906 273.515625 C 230.476562 288.09375 245.484375 303.296875 262.117188 319.667969 C 257.429688 319.921875 255.144531 320.144531 252.859375 320.144531 C 196.726562 320.152344 140.59375 320.375 84.457031 320.0625 C 42.1875 319.816406 7.816406 287.183594 5.746094 246.054688 C 5.65625 244.097656 5.953125 242.125 6.007812 241.238281 Z M 6.007812 241.238281 " fill-opacity="1" fill-rule="nonzero"/></g></svg>